<mxfile host="app.diagrams.net" agent="Mozilla/5.0 (Macintosh; Intel Mac OS X 10_15_7) AppleWebKit/605.1.15 (KHTML, like Gecko) Version/18.0.1 Safari/605.1.15" version="24.7.17">
  <diagram name="Page-1" id="1E69b4Tv1kbOAMCe2w2k">
    <mxGraphModel dx="1242" dy="855" grid="1" gridSize="10" guides="1" tooltips="1" connect="1" arrows="1" fold="1" page="1" pageScale="1" pageWidth="850" pageHeight="1100" math="0" shadow="0">
      <root>
        <mxCell id="0" />
        <mxCell id="1" parent="0" />
        <mxCell id="Npa1XHhkpHP4h4U4V749-12" style="edgeStyle=orthogonalEdgeStyle;rounded=0;orthogonalLoop=1;jettySize=auto;html=1;exitX=0.5;exitY=1;exitDx=0;exitDy=0;exitPerimeter=0;entryX=0.5;entryY=0;entryDx=0;entryDy=0;" edge="1" parent="1" source="Npa1XHhkpHP4h4U4V749-1" target="Npa1XHhkpHP4h4U4V749-2">
          <mxGeometry relative="1" as="geometry" />
        </mxCell>
        <mxCell id="Npa1XHhkpHP4h4U4V749-1" value="Start" style="strokeWidth=2;html=1;shape=mxgraph.flowchart.start_1;whiteSpace=wrap;" vertex="1" parent="1">
          <mxGeometry x="375" y="40" width="100" height="60" as="geometry" />
        </mxCell>
        <mxCell id="Npa1XHhkpHP4h4U4V749-13" style="edgeStyle=orthogonalEdgeStyle;rounded=0;orthogonalLoop=1;jettySize=auto;html=1;exitX=0.5;exitY=1;exitDx=0;exitDy=0;" edge="1" parent="1" source="Npa1XHhkpHP4h4U4V749-2" target="Npa1XHhkpHP4h4U4V749-3">
          <mxGeometry relative="1" as="geometry" />
        </mxCell>
        <mxCell id="Npa1XHhkpHP4h4U4V749-2" value="Log in to manager/admin account" style="rounded=1;whiteSpace=wrap;html=1;absoluteArcSize=1;arcSize=14;strokeWidth=2;" vertex="1" parent="1">
          <mxGeometry x="350" y="130" width="150" height="50" as="geometry" />
        </mxCell>
        <mxCell id="Npa1XHhkpHP4h4U4V749-14" style="edgeStyle=orthogonalEdgeStyle;rounded=0;orthogonalLoop=1;jettySize=auto;html=1;exitX=0.5;exitY=1;exitDx=0;exitDy=0;entryX=0.5;entryY=0;entryDx=0;entryDy=0;" edge="1" parent="1" source="Npa1XHhkpHP4h4U4V749-3" target="Npa1XHhkpHP4h4U4V749-4">
          <mxGeometry relative="1" as="geometry" />
        </mxCell>
        <mxCell id="Npa1XHhkpHP4h4U4V749-3" value="Go to inventory flyer section" style="rounded=1;whiteSpace=wrap;html=1;absoluteArcSize=1;arcSize=14;strokeWidth=2;" vertex="1" parent="1">
          <mxGeometry x="350" y="220" width="150" height="40" as="geometry" />
        </mxCell>
        <mxCell id="Npa1XHhkpHP4h4U4V749-15" style="edgeStyle=orthogonalEdgeStyle;rounded=0;orthogonalLoop=1;jettySize=auto;html=1;exitX=0.5;exitY=1;exitDx=0;exitDy=0;entryX=0.5;entryY=0;entryDx=0;entryDy=0;" edge="1" parent="1" source="Npa1XHhkpHP4h4U4V749-4" target="Npa1XHhkpHP4h4U4V749-6">
          <mxGeometry relative="1" as="geometry" />
        </mxCell>
        <mxCell id="Npa1XHhkpHP4h4U4V749-4" value="Click on create new flyer campaign" style="rounded=1;whiteSpace=wrap;html=1;absoluteArcSize=1;arcSize=14;strokeWidth=2;" vertex="1" parent="1">
          <mxGeometry x="350" y="300" width="150" height="40" as="geometry" />
        </mxCell>
        <mxCell id="Npa1XHhkpHP4h4U4V749-16" style="edgeStyle=orthogonalEdgeStyle;rounded=0;orthogonalLoop=1;jettySize=auto;html=1;exitX=0.5;exitY=1;exitDx=0;exitDy=0;entryX=0.5;entryY=0;entryDx=0;entryDy=0;" edge="1" parent="1" source="Npa1XHhkpHP4h4U4V749-6" target="Npa1XHhkpHP4h4U4V749-7">
          <mxGeometry relative="1" as="geometry" />
        </mxCell>
        <mxCell id="Npa1XHhkpHP4h4U4V749-6" value="Upload designed flyer" style="rounded=1;whiteSpace=wrap;html=1;absoluteArcSize=1;arcSize=14;strokeWidth=2;" vertex="1" parent="1">
          <mxGeometry x="350" y="380" width="150" height="40" as="geometry" />
        </mxCell>
        <mxCell id="Npa1XHhkpHP4h4U4V749-17" style="edgeStyle=orthogonalEdgeStyle;rounded=0;orthogonalLoop=1;jettySize=auto;html=1;exitX=0.5;exitY=1;exitDx=0;exitDy=0;entryX=0.5;entryY=0;entryDx=0;entryDy=0;" edge="1" parent="1" source="Npa1XHhkpHP4h4U4V749-7" target="Npa1XHhkpHP4h4U4V749-8">
          <mxGeometry relative="1" as="geometry" />
        </mxCell>
        <mxCell id="Npa1XHhkpHP4h4U4V749-7" value="Set target audience details" style="rounded=1;whiteSpace=wrap;html=1;absoluteArcSize=1;arcSize=14;strokeWidth=2;" vertex="1" parent="1">
          <mxGeometry x="350" y="460" width="150" height="40" as="geometry" />
        </mxCell>
        <mxCell id="Npa1XHhkpHP4h4U4V749-18" style="edgeStyle=orthogonalEdgeStyle;rounded=0;orthogonalLoop=1;jettySize=auto;html=1;exitX=0.5;exitY=1;exitDx=0;exitDy=0;entryX=0.5;entryY=0;entryDx=0;entryDy=0;" edge="1" parent="1" source="Npa1XHhkpHP4h4U4V749-8" target="Npa1XHhkpHP4h4U4V749-9">
          <mxGeometry relative="1" as="geometry" />
        </mxCell>
        <mxCell id="Npa1XHhkpHP4h4U4V749-8" value="Set launch and expiration date/times" style="rounded=1;whiteSpace=wrap;html=1;absoluteArcSize=1;arcSize=14;strokeWidth=2;" vertex="1" parent="1">
          <mxGeometry x="350" y="540" width="150" height="40" as="geometry" />
        </mxCell>
        <mxCell id="Npa1XHhkpHP4h4U4V749-19" style="edgeStyle=orthogonalEdgeStyle;rounded=0;orthogonalLoop=1;jettySize=auto;html=1;exitX=0.5;exitY=1;exitDx=0;exitDy=0;entryX=0.5;entryY=0;entryDx=0;entryDy=0;" edge="1" parent="1" source="Npa1XHhkpHP4h4U4V749-9" target="Npa1XHhkpHP4h4U4V749-10">
          <mxGeometry relative="1" as="geometry" />
        </mxCell>
        <mxCell id="Npa1XHhkpHP4h4U4V749-9" value="Click on schedule flyer" style="rounded=1;whiteSpace=wrap;html=1;absoluteArcSize=1;arcSize=14;strokeWidth=2;" vertex="1" parent="1">
          <mxGeometry x="350" y="620" width="150" height="40" as="geometry" />
        </mxCell>
        <mxCell id="Npa1XHhkpHP4h4U4V749-20" style="edgeStyle=orthogonalEdgeStyle;rounded=0;orthogonalLoop=1;jettySize=auto;html=1;exitX=0.5;exitY=1;exitDx=0;exitDy=0;" edge="1" parent="1" source="Npa1XHhkpHP4h4U4V749-10" target="Npa1XHhkpHP4h4U4V749-11">
          <mxGeometry relative="1" as="geometry" />
        </mxCell>
        <mxCell id="Npa1XHhkpHP4h4U4V749-10" value="Notify users when flyer will be launched&amp;nbsp;" style="rounded=1;whiteSpace=wrap;html=1;absoluteArcSize=1;arcSize=14;strokeWidth=2;" vertex="1" parent="1">
          <mxGeometry x="350" y="700" width="150" height="40" as="geometry" />
        </mxCell>
        <mxCell id="Npa1XHhkpHP4h4U4V749-11" value="End" style="strokeWidth=2;html=1;shape=mxgraph.flowchart.terminator;whiteSpace=wrap;" vertex="1" parent="1">
          <mxGeometry x="375" y="780" width="100" height="60" as="geometry" />
        </mxCell>
      </root>
    </mxGraphModel>
  </diagram>
</mxfile>
